<?xml version="1.0" encoding="UTF-8" standalone="no"?>
<!DOCTYPE svg PUBLIC "-//W3C//DTD SVG 1.1//EN" "http://www.w3.org/Graphics/SVG/1.1/DTD/svg11.dtd">
<svg version="1.1" xmlns="http://www.w3.org/2000/svg" xmlns:xlink="http://www.w3.org/1999/xlink" preserveAspectRatio="xMidYMid meet" viewBox="0 0 640 640" width="640" height="640"><defs><path d="M319.83 453.46C142.09 275.71 43.35 176.96 23.61 157.2C18.08 151.87 9.27 152.02 3.93 157.55C-1.27 162.94 -1.27 171.49 3.93 176.88C34.54 207.48 279.4 452.34 310.01 482.95C315.44 488.38 324.25 488.38 329.68 482.95C360.29 452.34 605.15 207.48 635.75 176.88C641.28 171.54 641.43 162.73 636.09 157.2C630.76 151.68 621.95 151.52 616.42 156.86C616.31 156.97 616.19 157.09 616.08 157.2C616.08 157.2 616.07 157.2 616.05 157.2L319.83 453.46Z" id="d4QvXlAYVS"></path><path d="M309.98 482.98C279.37 452.37 34.51 207.51 3.91 176.9C-1.43 171.38 -1.28 162.57 4.25 157.23C9.64 152.03 18.19 152.03 23.58 157.23C43.33 176.98 142.08 275.72 319.83 453.46C497.56 275.71 596.3 176.96 616.05 157.2C621.39 151.68 630.2 151.53 635.72 156.86C641.25 162.2 641.4 171.01 636.07 176.54C635.95 176.65 635.84 176.77 635.72 176.88C605.12 207.48 360.26 452.34 329.65 482.95C327.05 485.56 323.52 487.03 319.83 487.04C316.14 487.05 312.59 485.59 309.98 482.98Z" id="f2et0HD1O4"></path></defs><g><g><g><use xlink:href="#d4QvXlAYVS" opacity="1" fill="#ffffff" fill-opacity="1"></use><g><use xlink:href="#d4QvXlAYVS" opacity="1" fill-opacity="0" stroke="#000000" stroke-width="1" stroke-opacity="0"></use></g></g><g><use xlink:href="#f2et0HD1O4" opacity="1" fill="#ffffff" fill-opacity="1"></use><g><use xlink:href="#f2et0HD1O4" opacity="1" fill-opacity="0" stroke="#000000" stroke-width="1" stroke-opacity="0"></use></g></g></g></g></svg>