<?xml version="1.0" encoding="UTF-8" standalone="no"?>
<!DOCTYPE svg PUBLIC "-//W3C//DTD SVG 1.1//EN" "http://www.w3.org/Graphics/SVG/1.1/DTD/svg11.dtd">
<svg version="1.1" xmlns="http://www.w3.org/2000/svg" xmlns:xlink="http://www.w3.org/1999/xlink" preserveAspectRatio="xMidYMid meet" viewBox="0 0 640 640" width="640" height="640"><defs><path d="M320.62 120.81C148.91 120.81 14.46 302.35 8.82 310.07C3.48 317.4 3.48 327.35 8.82 334.68C14.46 342.41 148.91 523.96 320.62 523.96C492.33 523.96 626.77 342.41 632.41 334.69C637.77 327.36 637.77 317.4 632.41 310.08C626.77 302.35 492.33 120.81 320.62 120.81ZM52.16 322.37C84.55 282.94 193.87 162.51 320.62 162.51C447.09 162.51 556.63 282.98 589.08 322.4C556.69 361.82 447.37 482.25 320.62 482.25C194.14 482.25 84.59 361.76 52.16 322.37Z" id="elShxTCes"></path><path d="M193.4 320C193.4 389.8 250.19 446.59 320 446.59C389.8 446.59 446.59 389.8 446.59 320C446.59 250.2 389.8 193.41 320 193.41C250.19 193.41 193.4 250.2 193.4 320ZM235.6 320C235.6 273.46 273.46 235.61 320 235.61C366.53 235.61 404.39 273.46 404.39 320C404.39 366.54 366.53 404.4 320 404.4C273.46 404.4 235.6 366.54 235.6 320Z" id="b2tP2Tlg2X"></path></defs><g><g><g><use xlink:href="#elShxTCes" opacity="1" fill="#ffffff" fill-opacity="1"></use><g><use xlink:href="#elShxTCes" opacity="1" fill-opacity="0" stroke="#000000" stroke-width="1" stroke-opacity="0"></use></g></g><g><use xlink:href="#b2tP2Tlg2X" opacity="1" fill="#ffffff" fill-opacity="1"></use><g><use xlink:href="#b2tP2Tlg2X" opacity="1" fill-opacity="0" stroke="#000000" stroke-width="1" stroke-opacity="0"></use></g></g></g></g></svg>