<?xml version="1.0" encoding="UTF-8" standalone="no"?>
<!DOCTYPE svg PUBLIC "-//W3C//DTD SVG 1.1//EN" "http://www.w3.org/Graphics/SVG/1.1/DTD/svg11.dtd">
<svg version="1.1" xmlns="http://www.w3.org/2000/svg" xmlns:xlink="http://www.w3.org/1999/xlink" preserveAspectRatio="xMidYMid meet" viewBox="0 0 640 640" width="640" height="640"><defs><path d="M495.71 269.29C472.78 287.33 460.04 297.36 457.49 299.36C449.16 305.91 449.16 316.52 457.49 323.07C461.66 326.35 467.1 327.99 472.56 327.99C478.02 327.99 483.46 326.35 487.63 323.07C495.09 317.2 554.78 270.25 562.24 264.38C570.57 257.83 570.57 247.22 562.24 240.67C554.78 234.8 495.09 187.85 487.63 181.98C479.31 175.43 465.81 175.43 457.49 181.98C449.16 188.52 449.16 199.14 457.49 205.69C460.04 207.69 472.78 217.71 495.71 235.76C245.2 235.76 106.02 235.76 78.18 235.76C66.42 235.76 56.87 243.27 56.87 252.52C56.87 261.78 66.42 269.29 78.18 269.29C133.85 269.29 273.03 269.29 495.71 269.29Z" id="b25mLzhny"></path><path d="M129.65 369.91C152.58 351.87 165.32 341.85 167.87 339.84C176.19 333.29 176.19 322.68 167.87 316.13C159.55 309.58 146.04 309.58 137.72 316.13C130.26 322 70.57 368.95 63.11 374.82C54.79 381.37 54.79 391.99 63.11 398.53C70.57 404.4 130.26 451.36 137.72 457.23C141.88 460.5 147.34 462.14 152.8 462.14C158.25 462.14 163.71 460.5 167.87 457.23C176.19 450.68 176.19 440.06 167.87 433.51C165.32 431.51 152.58 421.49 129.65 403.45C380.16 403.45 519.34 403.45 547.17 403.45C558.94 403.45 568.49 395.93 568.49 386.68C568.49 377.42 558.94 369.91 547.17 369.91C491.5 369.91 352.33 369.91 129.65 369.91Z" id="aigotCODJ"></path></defs><g><g><g><use xlink:href="#b25mLzhny" opacity="1" fill="#ffffff" fill-opacity="1"></use><g><use xlink:href="#b25mLzhny" opacity="1" fill-opacity="0" stroke="#000000" stroke-width="1" stroke-opacity="0"></use></g></g><g><use xlink:href="#aigotCODJ" opacity="1" fill="#ffffff" fill-opacity="1"></use><g><use xlink:href="#aigotCODJ" opacity="1" fill-opacity="0" stroke="#000000" stroke-width="1" stroke-opacity="0"></use></g></g></g></g></svg>